<?xml version="1.0" encoding="utf-8"?>
<!-- Generator: Adobe Illustrator 19.0.0, SVG Export Plug-In . SVG Version: 6.00 Build 0)  -->
<svg version="1.1" id="Layer_1" xmlns="http://www.w3.org/2000/svg" xmlns:xlink="http://www.w3.org/1999/xlink" x="0px" y="0px"
	 viewBox="-169 210 300 62" style="enable-background:new -169 210 300 62;" xml:space="preserve">
<style type="text/css">
	.st0{display:none;}
	.st1{fill:#152737;}
</style>
<g id="bgd">
</g>
<g id="hex" class="st0">
</g>
<g id="joiners" class="st0">
</g>
<g>
	<g id="XMLID_1_">
		<g>
			<polygon class="st1" points="132.2,231 132.2,239.9 124.5,244.4 116.7,239.9 116.7,231 124.5,226.5 			"/>
			<polygon class="st1" points="122.6,247.7 122.6,256.7 114.8,261.2 107.1,256.7 107.1,247.7 114.8,243.2 			"/>
			<polygon class="st1" points="106.4,215.3 106.4,224.3 98.6,228.8 90.8,224.3 90.8,215.3 98.6,210.8 			"/>
			<polygon class="st1" points="97.5,230.4 97.5,239.3 89.7,243.8 82,239.3 82,230.4 89.7,225.9 			"/>
			<polygon class="st1" points="62.5,230.4 62.5,239.4 54.7,243.9 46.9,239.4 46.9,230.4 54.7,226 			"/>
			<polygon class="st1" points="53.7,215.3 53.7,224.3 46,228.8 38.2,224.3 38.2,215.3 46,210.8 			"/>
			<polygon class="st1" points="35.7,246.1 35.7,255 27.9,259.5 20.1,255 20.1,246.1 27.9,241.6 			"/>
			<polygon class="st1" points="18.2,215.3 18.2,224.3 10.5,228.8 2.7,224.3 2.7,215.3 10.5,210.8 			"/>
			<polygon class="st1" points="1.3,245.6 1.3,254.6 -6.5,259 -14.3,254.6 -14.3,245.6 -6.5,241.1 			"/>
			<polygon class="st1" points="-16.5,215.4 -16.5,224.3 -24.3,228.8 -32,224.3 -32,215.4 -24.3,210.9 			"/>
			<polygon class="st1" points="-25.2,230.9 -25.2,239.9 -33,244.3 -40.8,239.9 -40.8,230.9 -33,226.4 			"/>
			<path class="st1" d="M-32.2,224.6l7.9,4.5l8.1-4.7v-8.9h0.8c0,0.4,0.3,0.8,0.7,0.9v8.3c-0.4,0.1-0.7,0.4-0.7,0.9
				c0,0.1,0,0.2,0.1,0.3l-5.8,3.4c-0.1-0.1-0.4-0.2-0.6-0.2c-0.5,0-0.9,0.4-0.9,0.9s0.4,0.9,0.9,0.9c0.5,0,0.9-0.4,0.9-0.9
				c0-0.1,0-0.3-0.1-0.4l5.8-3.4c0.2,0.2,0.4,0.3,0.7,0.3c0.3,0,0.5-0.1,0.7-0.3l6.1,3.3c0,0,0,0,0,0c0,0.6,0.4,1.1,1,1.1v7.6
				c-0.4,0.1-0.7,0.4-0.7,0.8c0,0.1,0,0.2,0,0.3l-5.8,3.3c-0.1-0.1-0.2-0.2-0.3-0.3c-0.4-0.2-0.9-0.1-1.2,0.3
				c-0.2,0.4-0.1,1,0.3,1.2c0.4,0.2,0.9,0.1,1.2-0.3c0.1-0.2,0.1-0.4,0.1-0.6l5.8-3.3c0.2,0.2,0.4,0.3,0.7,0.3
				c0.3,0,0.5-0.1,0.7-0.3l7.2,4.1c-0.1,0.4,0,0.8,0.4,1.1l-0.3,0.5l-7.9-4.6l-8.1,4.7v0.9h-0.9c0-0.5-0.4-0.9-0.9-0.9
				s-0.9,0.4-0.9,0.9c0,0.4,0.3,0.8,0.7,0.9v8.3c-0.4,0.1-0.7,0.4-0.7,0.9c0,0.1,0,0.2,0,0.3l-6.2,3.4c-0.2-0.3-0.5-0.5-0.9-0.5
				c-0.4,0-0.7,0.2-0.9,0.4l-5.7-3.2c0-0.1,0.1-0.2,0.1-0.4c0-0.4-0.3-0.8-0.7-0.9v-8.3c0.4-0.1,0.7-0.4,0.7-0.9
				c0-0.5-0.4-0.9-0.9-0.9c-0.2,0-0.4,0.1-0.5,0.2l-0.6-1l7.8-4.5v-9.3l-8.1-4.7L-32.2,224.6z"/>
			<polygon class="st1" points="-34.1,246.4 -34.1,255.3 -41.9,259.8 -49.6,255.3 -49.6,246.4 -41.9,241.9 			"/>
			<polygon class="st1" points="-52,215.5 -52,224.5 -59.7,229 -67.5,224.5 -67.5,215.5 -59.7,211.1 			"/>
			<polygon class="st1" points="-69.7,245.8 -69.7,254.8 -77.4,259.2 -85.2,254.8 -85.2,245.8 -77.4,241.3 			"/>
			<path class="st1" d="M-77.4,241l-7.8,4.5l-0.4-0.7c0.4-0.2,0.5-0.7,0.4-1.1l7.2-4.1c0.2,0.2,0.4,0.3,0.7,0.3
				c0.3,0,0.5-0.1,0.7-0.3l5.8,3.3c0,0.2,0,0.4,0.1,0.6c0.2,0.4,0.8,0.6,1.2,0.3c0.4-0.2,0.6-0.8,0.3-1.2c-0.2-0.4-0.8-0.6-1.2-0.3
				c-0.1,0.1-0.2,0.2-0.3,0.3l-5.8-3.3c0-0.1,0-0.2,0-0.3c0-0.4-0.3-0.8-0.7-0.8v-7.6c0.6-0.1,1-0.5,1-1.1c0,0,0,0,0,0l6.1-3.3
				c0.2,0.2,0.4,0.3,0.7,0.3c0.3,0,0.5-0.1,0.7-0.3l5.8,3.3c0,0.1-0.1,0.2-0.1,0.4c0,0.5,0.4,0.9,0.9,0.9c0.5,0,0.9-0.4,0.9-0.9
				c0-0.3-0.2-0.6-0.4-0.7l0.4-0.6l1.6,0.9l1.5-0.9l0.3,0.5c-0.2,0.2-0.4,0.4-0.4,0.7c0,0.5,0.4,0.9,0.9,0.9c0.5,0,0.9-0.4,0.9-0.9
				c0,0,0-0.1,0-0.1l5.9-3.4c0.2,0.2,0.4,0.3,0.7,0.3c0.2,0,0.5-0.1,0.6-0.3l5.7,3.2c0,0,0,0.1,0,0.1c0,0.6,0.4,1,0.9,1.1v7.6
				c-0.4,0.1-0.7,0.4-0.7,0.9c0,0.1,0,0.2,0.1,0.3l-7.2,4.1c-0.3-0.3-0.7-0.4-1.1-0.2c-0.4,0.2-0.6,0.8-0.3,1.2
				c0.1,0.2,0.3,0.3,0.5,0.4l-0.4,0.8c-0.5,0-0.9,0.4-0.9,0.9c0,0.4,0.3,0.8,0.7,0.9v8.3c-0.4,0.1-0.7,0.4-0.7,0.9
				c0,0.1,0,0.2,0,0.3l-6.2,3.4c-0.2-0.3-0.6-0.5-1-0.5c-0.4,0-0.7,0.2-0.9,0.4l-5.7-3.2c0.1-0.1,0.1-0.2,0.1-0.4
				c0-0.4-0.3-0.8-0.7-0.9v-8.3c0.4-0.1,0.7-0.4,0.7-0.9c0-0.5-0.4-0.9-0.9-0.9c-0.5,0-0.9,0.4-0.9,0.9h-1.2v-1L-77.4,241z"/>
			<polygon class="st1" points="-87.1,215.5 -87.1,224.5 -94.8,228.9 -102.6,224.5 -102.6,215.5 -94.8,211 			"/>
			<polygon class="st1" points="-104.6,246.4 -104.6,255.3 -112.4,259.8 -120.2,255.3 -120.2,246.4 -112.4,241.9 			"/>
			<path class="st1" d="M-105.9,243.3c-0.1,0.2,0,0.4,0.1,0.6c0.2,0.4,0.8,0.6,1.2,0.3c0.4-0.2,0.6-0.8,0.3-1.2
				c-0.2-0.4-0.8-0.6-1.2-0.3c-0.1,0.1-0.2,0.2-0.3,0.3l-5.8-3.3c0-0.1,0.1-0.2,0.1-0.3c0-0.4-0.3-0.8-0.7-0.9v-7.6
				c0.6,0,1-0.5,1-1.1v0l6.1-3.3c0.2,0.2,0.4,0.3,0.7,0.3c0.3,0,0.5-0.1,0.7-0.3l5.8,3.4c-0.1,0.1-0.1,0.2-0.1,0.4
				c0,0.5,0.4,0.9,0.9,0.9c0.5,0,0.9-0.4,0.9-0.9c0-0.5-0.4-0.9-0.9-0.9c-0.2,0-0.4,0.1-0.6,0.2l-5.8-3.4c0-0.1,0-0.2,0-0.3
				c0-0.4-0.3-0.8-0.7-0.9v-8.3c0.4-0.1,0.7-0.4,0.7-0.9h0.6v8.7l8.1,4.7l1.8-1.1l0.3,0.6c-0.2,0.2-0.4,0.4-0.4,0.7
				c0,0.5,0.4,0.9,0.9,0.9c0.5,0,0.9-0.4,0.9-0.9c0,0,0-0.1,0-0.1l5.9-3.4c0.2,0.2,0.4,0.3,0.7,0.3c0.2,0,0.5-0.1,0.6-0.3l5.7,3.2
				c0,0,0,0.1,0,0.1c0,0.6,0.4,1,0.9,1.1v7.6c-0.4,0.1-0.7,0.4-0.7,0.9c0,0.1,0,0.2,0.1,0.3l-7.2,4.1c-0.3-0.3-0.7-0.4-1.1-0.2
				c-0.4,0.2-0.6,0.8-0.3,1.2c0,0.1,0.1,0.1,0.2,0.2l-0.6,0.6c-0.5,0-0.9,0.4-0.9,0.9c0,0.4,0.3,0.8,0.7,0.9v8.3
				c-0.4,0.1-0.7,0.4-0.7,0.8c0,0.1,0,0.2,0,0.3l-6.2,3.4c-0.2-0.3-0.6-0.5-1-0.5c-0.4,0-0.7,0.2-0.9,0.4l-5.7-3.2
				c0.1-0.1,0.1-0.2,0.1-0.4c0-0.4-0.3-0.8-0.7-0.8V247c0.4-0.1,0.7-0.4,0.7-0.9c0-0.5-0.4-0.9-0.9-0.9c-0.5,0-0.9,0.4-0.9,0.9
				l-0.9,0l-8.1-4.7l-7.8,4.5l-0.5-0.8c0.4-0.2,0.5-0.7,0.4-1l7.2-4.1c0.2,0.2,0.4,0.3,0.7,0.3c0.3,0,0.5-0.1,0.7-0.3L-105.9,243.3z
				"/>
			<polygon class="st1" points="-122.1,215.5 -122.1,224.5 -129.9,228.9 -137.6,224.5 -137.6,215.5 -129.9,211 			"/>
			<polygon class="st1" points="-130.8,230.6 -130.8,239.6 -138.6,244.1 -146.4,239.6 -146.4,230.6 -138.6,226.1 			"/>
			<path class="st1" d="M134.3,206.2v68.4h-303.5v-68.4H134.3z M124.5,244.8l8.1-4.7v-9.3l-8.1-4.7l-8.1,4.7v9.3L124.5,244.8z
				 M114.8,242.9l-8.1,4.7v9.3l8.1,4.7l8.1-4.7v-9.3L114.8,242.9z M99.5,230.3c-0.5,0-0.9,0.4-0.9,0.9c0,0.4,0.3,0.8,0.7,0.9v8.3
				c-0.4,0.1-0.7,0.4-0.7,0.9c0,0.1,0,0.2,0.1,0.3l-5.8,3.4c-0.1-0.3-0.4-0.5-0.8-0.5c-0.5,0-0.9,0.4-0.9,0.9s0.4,0.9,0.9,0.9
				c0.5,0,0.9-0.4,0.9-0.9c0,0,0-0.1,0-0.1l5.9-3.4c0.2,0.2,0.4,0.3,0.7,0.3c0.2,0,0.5-0.1,0.6-0.3l5.7,3.2c0,0,0,0.1,0,0.1
				c0,0.6,0.5,1.1,1.1,1.1c0.6,0,1.2-0.5,1.2-1.1c0,0,0,0,0,0l6.1-3.3c0.2,0.2,0.4,0.3,0.7,0.3c0.3,0,0.5-0.1,0.7-0.3l5.8,3.4
				c-0.1,0.1-0.1,0.2-0.1,0.4c0,0.5,0.4,0.9,0.9,0.9c0.5,0,0.9-0.4,0.9-0.9c0-0.5-0.4-0.9-0.9-0.9c-0.2,0-0.4,0.1-0.6,0.2l-5.8-3.4
				c0-0.1,0.1-0.2,0.1-0.3c0-0.4-0.3-0.8-0.7-0.9V232c0.4-0.1,0.7-0.4,0.7-0.9c0-0.5-0.4-0.9-0.9-0.9c-0.5,0-0.9,0.4-0.9,0.9
				c0,0.4,0.3,0.8,0.7,0.9v8.3c-0.4,0.1-0.7,0.4-0.7,0.9c0,0.1,0,0.2,0.1,0.3l-6,3.3c-0.1-0.5-0.6-0.8-1.1-0.8
				c-0.5,0-0.9,0.3-1.1,0.7l-5.6-3.1c0-0.1,0.1-0.2,0.1-0.4c0-0.4-0.3-0.8-0.7-0.9V232c0.4-0.1,0.7-0.4,0.7-0.9
				C100.3,230.7,100,230.3,99.5,230.3z M98.6,229.1l8.1-4.7v-9.3l-8.1-4.7l-8.1,4.7v9.3L98.6,229.1z M89.7,244.2l8.1-4.7v-9.3
				l-8.1-4.7l-8.1,4.7v9.3L89.7,244.2z M62.8,239.6v-9.3l-8.1-4.7l-8.1,4.7v9.3l8.1,4.7L62.8,239.6z M63.6,240.9c0,0.1,0,0.2,0,0.3
				l-5.8,3.4c-0.2-0.2-0.4-0.2-0.6-0.2c-0.5,0-0.9,0.4-0.9,0.9c0,0.5,0.4,0.9,0.9,0.9c0.5,0,0.9-0.4,0.9-0.9c0-0.1,0-0.3-0.1-0.4
				l5.8-3.4c0.2,0.2,0.4,0.3,0.7,0.3c0.3,0,0.5-0.1,0.7-0.3l6.2,3.4c0,0.1-0.1,0.2-0.1,0.3c0,0.6,0.4,1.1,1,1.1v7.3
				c-0.4,0.1-0.7,0.4-0.7,0.9c0,0.1,0,0.2,0,0.3l-5.8,3.3c-0.1-0.1-0.2-0.2-0.3-0.3c-0.4-0.2-1-0.1-1.2,0.3c-0.2,0.4-0.1,1,0.3,1.2
				c0.4,0.2,0.9,0.1,1.2-0.3c0.1-0.2,0.1-0.4,0.1-0.6l5.8-3.3c0.2,0.2,0.4,0.3,0.7,0.3c0.3,0,0.5-0.1,0.7-0.3l7.2,4.1
				c-0.1,0.4,0,0.8,0.4,1.1c0.4,0.2,1,0.1,1.2-0.3c0.2-0.4,0.1-1-0.3-1.2c-0.4-0.2-0.8-0.1-1.1,0.2l-7.2-4.1c0-0.1,0.1-0.2,0.1-0.3
				c0-0.4-0.3-0.8-0.7-0.9v-7.3c0.6-0.1,1-0.6,1-1.1c0-0.1,0-0.3-0.1-0.4l5.7-3.2c0.2,0.2,0.4,0.3,0.6,0.3c0.3,0,0.5-0.1,0.7-0.3
				l5.9,3.4c0,0,0,0.1,0,0.1c0,0.5,0.4,0.9,0.9,0.9c0.5,0,0.9-0.4,0.9-0.9c0-0.5-0.4-0.9-0.9-0.9c-0.3,0-0.6,0.2-0.8,0.5l-5.8-3.4
				c0-0.1,0-0.2,0-0.3c0-0.4-0.3-0.8-0.7-0.9v-8.3c0.4-0.1,0.7-0.4,0.7-0.9c0-0.5-0.4-0.9-0.9-0.9c-0.5,0-0.9,0.4-0.9,0.9
				c0,0.4,0.3,0.8,0.7,0.9v8.3c-0.4,0.1-0.7,0.4-0.7,0.9c0,0.1,0,0.2,0.1,0.4l-5.7,3.2c-0.2-0.3-0.5-0.4-0.9-0.4
				c-0.4,0-0.8,0.2-1,0.5l-6.2-3.4c0-0.1,0-0.2,0-0.3c0-0.4-0.3-0.8-0.7-0.9v-8.3c0.4-0.1,0.7-0.4,0.7-0.9c0-0.5-0.4-0.9-0.9-0.9
				c-0.5,0-0.9,0.4-0.9,0.9c0,0.4,0.3,0.8,0.7,0.9v8.3C63.9,240.1,63.6,240.5,63.6,240.9z M37.9,224.4l8.1,4.7l8.1-4.7v-9.3
				l-8.1-4.7l-8.1,4.7V224.4z M27.9,241.2l-8.1,4.7v9.3l8.1,4.7l8.1-4.7v-9.3L27.9,241.2z M19.7,244.9c0.4-0.2,0.5-0.7,0.4-1.1
				l7.2-4.1c0.2,0.2,0.4,0.3,0.7,0.3c0.3,0,0.5-0.1,0.7-0.3l5.8,3.3c0,0.2,0,0.4,0.1,0.6c0.2,0.4,0.8,0.6,1.2,0.3
				c0.4-0.2,0.6-0.8,0.3-1.2c-0.2-0.4-0.8-0.6-1.2-0.3c-0.1,0.1-0.2,0.2-0.3,0.3l-5.8-3.3c0-0.1,0.1-0.2,0.1-0.3
				c0-0.4-0.3-0.8-0.7-0.8v-7.6c0.6-0.1,1-0.5,1-1.1c0,0,0,0,0,0l6.1-3.3c0.2,0.2,0.4,0.3,0.7,0.3c0.3,0,0.5-0.1,0.7-0.3l5.8,3.4
				c-0.1,0.1-0.1,0.2-0.1,0.4c0,0.5,0.4,0.9,0.9,0.9s0.9-0.4,0.9-0.9s-0.4-0.9-0.9-0.9c-0.2,0-0.5,0.1-0.6,0.2l-5.8-3.4
				c0-0.1,0.1-0.2,0.1-0.3c0-0.4-0.3-0.8-0.7-0.9v-8.3c0.4-0.1,0.7-0.4,0.7-0.9c0-0.5-0.4-0.9-0.9-0.9c-0.5,0-0.9,0.4-0.9,0.9
				c0,0.4,0.3,0.8,0.7,0.9v8.3c-0.4,0.1-0.7,0.4-0.7,0.9c0,0.1,0,0.2,0,0.3l-6,3.3c-0.1-0.5-0.6-0.8-1.1-0.8c-0.5,0-0.9,0.3-1.1,0.7
				l-5.6-3.1c0.1-0.1,0.1-0.2,0.1-0.3c0-0.4-0.3-0.8-0.7-0.9v-8.3c0.4-0.1,0.7-0.4,0.7-0.9c0-0.5-0.4-0.9-0.9-0.9
				c-0.5,0-0.9,0.4-0.9,0.9c0,0.4,0.3,0.8,0.7,0.9v8.3c-0.4,0.1-0.7,0.4-0.7,0.9c0,0.1,0,0.2,0.1,0.3l-5.8,3.4
				c-0.1-0.3-0.4-0.5-0.8-0.5c-0.5,0-0.9,0.4-0.9,0.9c0,0.5,0.4,0.9,0.9,0.9c0.5,0,0.9-0.4,0.9-0.9c0,0,0,0,0-0.1l5.9-3.4
				c0.2,0.2,0.4,0.3,0.7,0.3c0.2,0,0.5-0.1,0.6-0.3l5.7,3.2c0,0,0,0.1,0,0.1c0,0.6,0.4,1,0.9,1.1v7.7c-0.4,0.1-0.7,0.4-0.7,0.8
				c0,0.1,0,0.2,0.1,0.3l-7.2,4.1c-0.3-0.3-0.7-0.4-1.1-0.2c-0.4,0.2-0.6,0.8-0.3,1.2S19.2,245.1,19.7,244.9z M2.4,224.4l8.1,4.7
				l8.1-4.7v-9.3l-8.1-4.7l-8.1,4.7V224.4z M-41.1,240.1l8.1,4.7l0.2-0.1l0.6,1c-0.2,0.2-0.4,0.4-0.4,0.7c0,0.4,0.3,0.8,0.7,0.9v8.3
				c-0.4,0.1-0.7,0.4-0.7,0.9c0,0.5,0.4,0.9,0.9,0.9c0.2,0,0.5-0.1,0.6-0.3l5.7,3.2c0,0.1-0.1,0.3-0.1,0.5c0,0.6,0.4,1,1,1.1v7.3
				c-0.4,0.1-0.7,0.4-0.7,0.9c0,0.5,0.4,0.9,0.9,0.9c0.5,0,0.9-0.4,0.9-0.9c0-0.4-0.3-0.8-0.7-0.9v-7.3c0.6-0.1,1-0.5,1-1.1
				c0-0.1,0-0.2-0.1-0.3l6.2-3.4c0.2,0.2,0.4,0.3,0.7,0.3c0.3,0,0.5-0.1,0.7-0.3l5.8,3.4c-0.1,0.1-0.1,0.2-0.1,0.4
				c0,0.5,0.4,0.9,0.9,0.9c0.5,0,0.9-0.4,0.9-0.9s-0.4-0.9-0.9-0.9c-0.2,0-0.4,0.1-0.6,0.2l-5.8-3.4c0-0.1,0.1-0.2,0.1-0.3
				c0-0.4-0.3-0.8-0.7-0.9v-8.3c0.4-0.1,0.7-0.4,0.7-0.9h0.9v8.4l8.1,4.7l8.1-4.7v-9.3l-0.2-0.1l0.3-0.5c0.4,0.2,1,0.1,1.2-0.3
				s0.1-0.9-0.3-1.2c-0.4-0.2-0.8-0.1-1.1,0.2l-7.2-4.1c0-0.1,0-0.2,0-0.3c0-0.4-0.3-0.8-0.7-0.8v-7.7c0.5-0.1,0.9-0.6,0.9-1.1
				c0,0,0-0.1,0-0.1l5.7-3.2c0.2,0.2,0.4,0.3,0.6,0.3c0.3,0,0.5-0.1,0.7-0.3l5.9,3.4c0,0,0,0.1,0,0.1c0,0.5,0.4,0.9,0.9,0.9
				s0.9-0.4,0.9-0.9c0-0.5-0.4-0.9-0.9-0.9c-0.3,0-0.6,0.2-0.8,0.5l-5.8-3.4c0-0.1,0.1-0.2,0.1-0.3c0-0.4-0.3-0.8-0.7-0.9v-8.3
				c0.4-0.1,0.7-0.4,0.7-0.9c0-0.5-0.4-0.9-0.9-0.9c-0.5,0-0.9,0.4-0.9,0.9c0,0.4,0.3,0.8,0.7,0.9v8.3c-0.4,0.1-0.7,0.4-0.7,0.9
				c0,0.1,0,0.2,0.1,0.3l-5.6,3.1c-0.2-0.4-0.6-0.7-1.1-0.7c-0.5,0-0.9,0.3-1.1,0.8l-6-3.3c0-0.1,0.1-0.2,0.1-0.3
				c0-0.4-0.3-0.8-0.7-0.9v-8.3c0.4-0.1,0.7-0.4,0.7-0.9c0-0.5-0.4-0.9-0.9-0.9c-0.5,0-0.9,0.4-0.9,0.9h-0.8v-0.4l-8.1-4.7l-8.1,4.7
				v9.3l0.2,0.1l-0.8,1.5l-8.1,4.7V240.1z M-50,255.5l8,4.6l0.1,0l8.1-4.7v-9.3l-8.1-4.7l-8.1,4.7V255.5z M-120.5,246.2v9.3l8,4.6
				l0.1,0l8.1-4.7v-9.3l0.9,0c0,0.4,0.3,0.8,0.7,0.9v8.3c-0.4,0.1-0.7,0.4-0.7,0.8c0,0.5,0.4,0.9,0.9,0.9c0.2,0,0.5-0.1,0.6-0.3
				l5.7,3.2c0,0.1-0.1,0.3-0.1,0.5c0,0.6,0.4,1,1,1.1v7.3c-0.4,0.1-0.7,0.4-0.7,0.9c0,0.5,0.4,0.9,0.9,0.9c0.5,0,0.9-0.4,0.9-0.9
				c0-0.4-0.3-0.8-0.7-0.9v-7.3c0.6-0.1,1-0.6,1-1.1c0-0.1,0-0.2-0.1-0.3l6.2-3.4c0.2,0.2,0.4,0.3,0.7,0.3c0.3,0,0.5-0.1,0.7-0.3
				l5.8,3.4c-0.1,0.1-0.1,0.2-0.1,0.4c0,0.5,0.4,0.9,0.9,0.9c0.5,0,0.9-0.4,0.9-0.9c0-0.5-0.4-0.9-0.9-0.9c-0.2,0-0.4,0.1-0.6,0.2
				l-5.8-3.4c0-0.1,0.1-0.2,0.1-0.3c0-0.4-0.3-0.8-0.7-0.8V247c0.4-0.1,0.7-0.4,0.7-0.9c0-0.5-0.4-0.9-0.9-0.9l0.6-0.6
				c0.3,0.3,0.7,0.3,1.1,0.1l0.4,0.7l-0.3,0.2v9.3l8.1,4.7l8.1-4.7v-8.3h1.2c0,0.4,0.3,0.8,0.7,0.9v8.3c-0.4,0.1-0.7,0.4-0.7,0.9
				c0,0.5,0.4,0.9,0.9,0.9c0.2,0,0.5-0.1,0.6-0.3l5.7,3.2c-0.1,0.1-0.1,0.3-0.1,0.4c0,0.6,0.4,1,1,1.1v7.3c-0.4,0.1-0.7,0.4-0.7,0.9
				c0,0.5,0.4,0.9,0.9,0.9c0.5,0,0.9-0.4,0.9-0.9c0-0.4-0.3-0.8-0.7-0.9V262c0.6-0.1,1-0.5,1-1.1c0-0.1,0-0.2-0.1-0.3l6.2-3.4
				c0.2,0.2,0.4,0.3,0.7,0.3c0.3,0,0.5-0.1,0.7-0.3l5.8,3.4c-0.1,0.1-0.1,0.2-0.1,0.4c0,0.5,0.4,0.9,0.9,0.9s0.9-0.4,0.9-0.9
				c0-0.5-0.4-0.9-0.9-0.9c-0.2,0-0.4,0.1-0.6,0.2l-5.8-3.4c0-0.1,0-0.2,0-0.3c0-0.4-0.3-0.8-0.7-0.9v-8.3c0.4-0.1,0.7-0.4,0.7-0.9
				c0-0.5-0.4-0.9-0.9-0.9l0.4-0.8c0.2,0.1,0.5,0,0.7-0.1c0.4-0.2,0.5-0.6,0.4-1l7.2-4.2c0.2,0.2,0.4,0.3,0.7,0.3
				c0.5,0,0.9-0.4,0.9-0.9c0-0.4-0.3-0.8-0.7-0.9v-7.6c0.6-0.1,1-0.5,1-1.1v0l6.1-3.3c0.2,0.2,0.4,0.3,0.7,0.3
				c0.5,0,0.9-0.4,0.9-0.9c0-0.5-0.4-0.9-0.9-0.9s-0.9,0.4-0.9,0.9c0,0.1,0,0.2,0,0.3l-6,3.3c-0.2-0.5-0.6-0.8-1.1-0.8
				c-0.5,0-0.9,0.3-1.1,0.7l-5.6-3.1c0-0.1,0.1-0.2,0.1-0.4c0-0.4-0.3-0.8-0.7-0.9v-8.3c0.4-0.1,0.7-0.4,0.7-0.9
				c0-0.5-0.4-0.9-0.9-0.9c-0.5,0-0.9,0.4-0.9,0.9c0,0.4,0.3,0.8,0.7,0.9v8.3c-0.4,0.1-0.7,0.4-0.7,0.9c0,0.1,0,0.2,0.1,0.3
				l-5.8,3.4c-0.1-0.3-0.4-0.5-0.8-0.5c-0.2,0-0.3,0.1-0.5,0.2l-0.3-0.5l6.5-3.8v-9.3l-8.1-4.7l-8.1,4.7v9.3l6.5,3.7l-0.4,0.6
				c-0.1-0.1-0.3-0.1-0.5-0.1c-0.2,0-0.5,0.1-0.6,0.2l-5.8-3.4c0-0.1,0.1-0.2,0.1-0.3c0-0.4-0.3-0.8-0.7-0.9v-8.3
				c0.4-0.1,0.7-0.4,0.7-0.9c0-0.5-0.4-0.9-0.9-0.9c-0.5,0-0.9,0.4-0.9,0.9c0,0.4,0.3,0.8,0.7,0.9v8.3c-0.4,0.1-0.7,0.4-0.7,0.9
				c0,0.1,0,0.2,0,0.3l-6,3.3c-0.2-0.5-0.6-0.8-1.1-0.8c-0.5,0-0.9,0.3-1.1,0.7l-5.6-3.1c0.1-0.1,0.1-0.2,0.1-0.3
				c0-0.4-0.3-0.8-0.7-0.9v-8.3c0.4-0.1,0.7-0.4,0.7-0.9c0-0.5-0.4-0.9-0.9-0.9c-0.5,0-0.9,0.4-0.9,0.9c0,0.4,0.3,0.8,0.7,0.9v8.3
				c-0.4,0.1-0.7,0.4-0.7,0.9c0,0.1,0,0.2,0.1,0.3l-5.8,3.4c-0.1-0.3-0.4-0.5-0.8-0.5c-0.2,0-0.3,0.1-0.5,0.1l-0.3-0.6l6.2-3.6v-9.3
				l-8.1-4.7l-8.1,4.7v0.6h-0.6c0-0.5-0.4-0.9-0.9-0.9c-0.5,0-0.9,0.4-0.9,0.9c0,0.4,0.3,0.8,0.7,0.9v8.3c-0.4,0.1-0.7,0.4-0.7,0.9
				c0,0.1,0,0.2,0.1,0.3l-6,3.3c-0.1-0.5-0.6-0.8-1.1-0.8c-0.5,0-0.9,0.3-1.1,0.7l-5.6-3.1c0.1-0.1,0.1-0.2,0.1-0.3
				c0-0.4-0.3-0.8-0.7-0.9v-8.3c0.4-0.1,0.7-0.4,0.7-0.9c0-0.5-0.4-0.9-0.9-0.9c-0.5,0-0.9,0.4-0.9,0.9c0,0.4,0.3,0.8,0.7,0.9v8.3
				c-0.4,0.1-0.7,0.4-0.7,0.8c0,0.1,0,0.2,0.1,0.3l-5.8,3.4c-0.1-0.3-0.4-0.5-0.8-0.5c-0.5,0-0.9,0.4-0.9,0.9c0,0.5,0.4,0.9,0.9,0.9
				c0.5,0,0.9-0.4,0.9-0.9c0,0,0-0.1,0-0.1l5.9-3.4c0.2,0.2,0.4,0.3,0.7,0.3c0.2,0,0.5-0.1,0.6-0.3l5.7,3.2c0,0,0,0.1,0,0.1
				c0,0.6,0.4,1,0.9,1.1v7.7c-0.4,0.1-0.7,0.4-0.7,0.9c0,0.1,0,0.2,0,0.3l-7.2,4.1c-0.3-0.3-0.7-0.4-1.1-0.2
				c-0.4,0.2-0.6,0.8-0.3,1.2c0.2,0.4,0.8,0.6,1.2,0.3l0.5,0.8L-120.5,246.2z M-138.6,244.4l8.1-4.7v-9.3l-8.1-4.7l-8.1,4.7v9.3
				L-138.6,244.4z M-137.9,224.6l8.1,4.7l8.1-4.7v-9.3l-8.1-4.7l-8.1,4.7V224.6z M-147.5,230.8c0-0.5-0.4-0.9-0.9-0.9
				c-0.5,0-0.9,0.4-0.9,0.9c0,0.4,0.3,0.8,0.7,0.9v8.3c-0.4,0.1-0.7,0.4-0.7,0.9c0,0.1,0,0.2,0.1,0.3l-6.2,3.4
				c-0.2-0.3-0.6-0.5-1-0.5c-0.4,0-0.7,0.2-0.9,0.4l-5.7-3.2c0-0.1,0.1-0.2,0.1-0.4c0-0.4-0.3-0.8-0.7-0.9v-8.3
				c0.4-0.1,0.7-0.4,0.7-0.9c0-0.5-0.4-0.9-0.9-0.9s-0.9,0.4-0.9,0.9c0,0.4,0.3,0.8,0.7,0.9v8.3c-0.4,0.1-0.7,0.4-0.7,0.9
				c0,0.5,0.4,0.9,0.9,0.9c0.2,0,0.5-0.1,0.6-0.3l5.7,3.2c-0.1,0.1-0.1,0.3-0.1,0.4c0,0.6,0.4,1,1,1.1v7.3c-0.4,0.1-0.7,0.4-0.7,0.9
				c0,0.1,0,0.2,0.1,0.3l-7.2,4.1c-0.3-0.3-0.7-0.4-1.1-0.2c-0.4,0.2-0.6,0.8-0.3,1.2c0.2,0.4,0.8,0.6,1.2,0.3
				c0.4-0.2,0.5-0.7,0.4-1l7.2-4.1c0.2,0.2,0.4,0.3,0.7,0.3c0.3,0,0.5-0.1,0.7-0.3l5.8,3.3c-0.1,0.2,0,0.4,0.1,0.6
				c0.2,0.4,0.8,0.6,1.2,0.3s0.6-0.8,0.3-1.2c-0.2-0.4-0.8-0.6-1.2-0.3c-0.1,0.1-0.2,0.2-0.3,0.3l-5.8-3.3c0-0.1,0.1-0.2,0.1-0.3
				c0-0.4-0.3-0.8-0.7-0.9v-7.3c0.6-0.1,1-0.6,1-1.1c0-0.1,0-0.2-0.1-0.3l6.2-3.4c0.2,0.2,0.4,0.3,0.7,0.3c0.3,0,0.5-0.1,0.7-0.3
				l5.8,3.4c-0.1,0.1-0.1,0.2-0.1,0.4c0,0.5,0.4,0.9,0.9,0.9c0.5,0,0.9-0.4,0.9-0.9c0-0.5-0.4-0.9-0.9-0.9c-0.2,0-0.4,0.1-0.6,0.2
				l-5.8-3.4c0-0.1,0.1-0.2,0.1-0.3c0-0.4-0.3-0.8-0.7-0.9v-8.3C-147.8,231.6-147.5,231.3-147.5,230.8z"/>
		</g>
		<g>
		</g>
	</g>
</g>
</svg>
