<?xml version="1.0" encoding="utf-8"?>
<!-- Generator: Adobe Illustrator 19.0.0, SVG Export Plug-In . SVG Version: 6.00 Build 0)  -->
<svg version="1.1" xmlns="http://www.w3.org/2000/svg" xmlns:xlink="http://www.w3.org/1999/xlink" x="0px" y="0px"
	 viewBox="-119 41 400 400" style="enable-background:new -119 41 400 400;" xml:space="preserve">
<style type="text/css">
	.st0{fill:#152737;}
	.st1{fill:none;stroke:#152737;stroke-width:0.5;stroke-linecap:round;stroke-linejoin:round;}
	.st2{fill:#152737;stroke:#152737;stroke-width:0.5;stroke-linecap:round;stroke-linejoin:round;}
	.st3{fill:#FF3D00;}
	.st4{fill:none;stroke:#FF3D00;stroke-width:0.5;stroke-linecap:round;stroke-linejoin:round;}
</style>
<g id="Capa_1">
	<g id="XMLID_1_">
		<g>
			<path class="st0" d="M281,99.3v217.3c0,18.4-15,33.3-33.3,33.3H140.3l20.1,44.2c1.1,2.1,1.7,4.4,1.7,6.9c0,8.3-6.7,15-15,15
				c0,0,0,0,0,0H15c-5.1,0-9.8-2.6-12.6-6.9c-2.8-4.3-3.2-9.7-1.1-14.3l20.4-44.9H-85.7c-18.4,0-33.3-15-33.3-33.3V99.3
				c0-18.4,14.9-33.3,33.3-33.3h333.4C266,66,281,80.9,281,99.3z M251,316.6V99.3c0-1.8-1.5-3.3-3.3-3.3H-85.7
				c-1.8,0-3.3,1.5-3.3,3.3v217.3c0,1.8,1.5,3.3,3.3,3.3h333.4C249.5,319.9,251,318.4,251,316.6z"/>
		</g>
		<g>
		</g>
	</g>
</g>
<g id="Isolation_Mode">
	<g id="XMLID_2_">
		<g>
			<path class="st0" d="M185.8,213c1.9,2,1.9,5.2,0,7.2l-46.5,48.5c-1.9,2-4.8,1.8-6.4-0.5l-3.4-4.8c-1.6-2.2-1.4-5.7,0.5-7.7
				l33.5-35.5c1.9-2,1.9-5.3,0-7.3l-33.5-35.5c-1.9-2-2.1-5.5-0.5-7.7l3.4-4.8c1.6-2.2,4.5-2.5,6.4-0.5L185.8,213z"/>
		</g>
		<g>
			<path class="st1" d="M139.4,164.4c-1.9-2-4.8-1.8-6.4,0.5l-3.4,4.8c-1.6,2.2-1.4,5.7,0.5,7.7l33.5,35.5c1.9,2,1.9,5.3,0,7.3
				l-33.5,35.5c-1.9,2-2.1,5.5-0.5,7.7l3.4,4.8c1.6,2.2,4.5,2.5,6.4,0.5l46.5-48.5c1.9-2,1.9-5.2,0-7.2L139.4,164.4z"/>
		</g>
	</g>
	<path class="st2" d="M-2.1,219.7c-1.9-2-1.9-5.3,0-7.3l33.5-35.5c1.9-2,2.1-5.5,0.5-7.7l-3.4-4.8c-1.6-2.2-4.5-2.5-6.4-0.5
		l-46.5,48.5c-1.9,2-1.9,5.2,0,7.2l46.5,48.5c1.9,2,4.8,1.8,6.4-0.5l3.4-4.8c1.6-2.2,1.3-5.7-0.5-7.7L-2.1,219.7z"/>
	<g id="XMLID_3_">
		<g>
			<path class="st3" d="M103.7,161.6c2.8,0,4.3,2.1,3.4,4.7L70.9,270.2c-0.9,2.6-3.9,4.7-6.7,4.7H58c-2.8,0-4.3-2.1-3.4-4.7
				l36.1-103.9c0.9-2.6,3.9-4.7,6.7-4.7H103.7z"/>
		</g>
		<g>
			<path class="st4" d="M103.7,161.6h-6.2c-2.8,0-5.8,2.1-6.7,4.7L54.7,270.2c-0.9,2.6,0.6,4.7,3.4,4.7h6.2c2.8,0,5.8-2.1,6.7-4.7
				L107,166.4C107.9,163.8,106.4,161.6,103.7,161.6z"/>
		</g>
	</g>
</g>
</svg>
