<?xml version="1.0" encoding="utf-8"?>
<!-- Generator: Adobe Illustrator 19.0.0, SVG Export Plug-In . SVG Version: 6.00 Build 0)  -->
<svg version="1.1" id="Capa_1" xmlns="http://www.w3.org/2000/svg" xmlns:xlink="http://www.w3.org/1999/xlink" x="0px" y="0px"
	 viewBox="-119 41 400 400" style="enable-background:new -119 41 400 400;" xml:space="preserve">
<style type="text/css">
	.st0{fill:#152737;}
	.st1{fill:#FF3D00;}
</style>
<g>
	<g id="XMLID_1_">
		<g>
			<path class="st0" d="M281,99.3v217.3c0,18.4-15,33.3-33.3,33.3H140.3l20.1,44.2c1.1,2.1,1.7,4.4,1.7,6.9c0,8.3-6.7,15-15,15
				c0,0,0,0,0,0H15c-5.1,0-9.8-2.6-12.6-6.9c-2.8-4.3-3.2-9.7-1.1-14.3l20.4-44.9H-85.7c-18.4,0-33.3-15-33.3-33.3V99.3
				c0-18.4,14.9-33.3,33.3-33.3h333.4C266,66,281,80.9,281,99.3z M251,316.6V99.3c0-1.8-1.5-3.3-3.3-3.3H-85.7
				c-1.8,0-3.3,1.5-3.3,3.3v217.3c0,1.8,1.5,3.3,3.3,3.3h333.4C249.5,319.9,251,318.4,251,316.6z"/>
			<path class="st0" d="M150.3,160.5c1.1,1.1,0.9,2.9-0.4,4.2L133.7,181c-0.6,0.6-1.4,1-2.1,1c-0.8,0.1-1.5-0.2-2-0.7l-23.1-23.1
				c-1.1-1.1-0.9-2.9,0.3-4.2l16.3-16.3c1.2-1.2,3.1-1.4,4.2-0.4L150.3,160.5z"/>
			<path class="st1" d="M142.2,237.6c6.4,8.3,8.9,20.2,7.2,33.5c-0.2,1.8-1.4,3.3-3,4c-0.7,0.3-1.4,0.4-2.1,0.4c-1,0-2-0.3-2.9-0.9
				c-4.1-2.8-8.8-3.6-13.7-4.3c-4.7-0.7-10-1.6-15.8-4.3c-6.8-3.1-11.2-8.2-12.2-13.8c-1-5.7,1.5-11.7,7.3-17.4
				c4.8-4.8,10.4-7.3,16.4-7.3C130.4,227.5,137.2,231.2,142.2,237.6z"/>
			<path class="st0" d="M124.7,186.1c0.5,0.5,0.8,1.2,0.7,2c-0.1,0.8-0.4,1.6-1,2.2l-18.1,18.1c2.1,2.3,4.1,4.7,6,6.9
				c1,1.2,1.4,2.8,1.1,4.4c-0.3,1.5-1.4,2.9-2.9,3.5c-3.2,1.5-6.2,3.6-8.9,6.3c-2.2,2.1-3.9,4.4-5.3,6.6c-0.8,1.3-2.1,2.1-3.5,2.4
				c-0.3,0-0.6,0.1-0.8,0.1c-1.2,0-2.4-0.4-3.3-1.2c-2-1.7-4-3.4-6.1-5.3l-23.4,23.4c-0.6,0.6-1.4,1-2.2,1c-0.8,0.1-1.5-0.2-2-0.7
				l-23.1-23.1c-1.1-1-0.9-2.9,0.3-4.2l23-23c-12.1-12.8-22.7-25.5-30.4-36.6c-8.1-11.6-12.6-20.9-12.6-26c0-1.4,0.5-2.7,1.5-3.7
				c1-1,2.3-1.5,3.7-1.5c7.5,0.1,21,9,28.4,14.3c10.5,7.5,22.3,17.5,34.2,28.7l17.6-17.6c1.2-1.2,3.1-1.4,4.2-0.3L124.7,186.1z"/>
			<path class="st1" d="M49.2,260.4c0.7,0.7,0.9,1.8,0.5,2.8c-0.4,1-1.2,1.9-2.3,2.3l-32.9,11.1c-0.2,0.1-0.5,0.1-0.8,0.2
				c-0.8,0.1-1.5-0.2-2-0.7c-0.7-0.7-0.9-1.7-0.5-2.8l11.1-32.9c0.3-1,1.2-1.9,2.2-2.3c1-0.4,2.1-0.2,2.8,0.5L49.2,260.4z"/>
		</g>
		<g>
		</g>
	</g>
</g>
</svg>
